<svg version="1.1" id="Layer_1" xmlns="http://www.w3.org/2000/svg" xmlns:xlink="http://www.w3.org/1999/xlink" x="0px" y="0px"
	 viewBox="-1311.6 1177.7 123.2 100.8" style="enable-background:new -1311.6 1177.7 123.2 100.8;" xml:space="preserve">
<g>
	<g>
		<g>
			<g>
				<path d="M-1243.9,1259.8c4.2-0.7,8.2-1.9,11.9-3.6h9.7h10.4l-3.6-6.3l-2.7-4.6c1.2-1.5,2.2-3.1,3-4.8c1.8-3.6,2.7-7.5,2.7-11.6
					c0-17.4-17.5-31.5-39-31.5s-39,14.1-39,31.5s17.5,31.5,39,31.5C-1248.9,1260.4-1246.4,1260.2-1243.9,1259.8z M-1231,1261.2
					c-6.1,2.7-13.1,4.2-20.5,4.2c-24.3,0-44-16.4-44-36.5c0-20.1,19.7-36.5,44-36.5c24.3,0,44,16.4,44,36.5c0,6-1.7,11.6-4.8,16.6
					l9.1,15.7H-1231L-1231,1261.2z"/>
			</g>
		</g>
	</g>
</g>
<circle cx="-1272.8" cy="1231.8" r="7.2"/>
<circle cx="-1251.3" cy="1231.8" r="7.2"/>
<circle cx="-1229.8" cy="1231.8" r="7.2"/>
</svg>
