<svg version="1.1" id="Layer_1" xmlns="http://www.w3.org/2000/svg" xmlns:xlink="http://www.w3.org/1999/xlink" x="0px" y="0px"
	 viewBox="-1381.5 1256.5 27 27.1" style="enable-background:new -1381.5 1256.5 27 27.1;" xml:space="preserve">
<title>Slide-Settings</title>
<path d="M-1359.8,1263.7v-2.7c0-0.5-0.4-0.9-0.9-0.9s-0.9,0.4-0.9,0.9l0,0v2.7c-1.4,0.5-2.1,2-1.6,3.4c0.3,0.7,0.9,1.3,1.6,1.6v10.4
	c0,0.5,0.4,0.9,0.9,0.9s0.9-0.4,0.9-0.9l0,0v-10.4c1.4-0.5,2.1-2,1.6-3.4C-1358.4,1264.5-1359,1263.9-1359.8,1263.7z
	 M-1360.7,1267.5c-0.7,0-1.3-0.6-1.3-1.3c0-0.7,0.6-1.3,1.3-1.3c0.7,0,1.3,0.6,1.3,1.3l0,0
	C-1359.4,1266.9-1360,1267.5-1360.7,1267.5z"/>
<path d="M-1367.1,1270.6v-9.7c0-0.5-0.4-0.9-0.9-0.9s-0.9,0.4-0.9,0.9v9.7c-1.4,0.5-2.1,2-1.6,3.4c0.3,0.7,0.9,1.3,1.6,1.6v3.4
	c0,0.5,0.4,0.9,0.9,0.9s0.9-0.4,0.9-0.9v-3.4c1.4-0.5,2.1-2,1.6-3.4C-1365.7,1271.5-1366.3,1270.9-1367.1,1270.6z M-1368,1274.4
	c-0.7,0-1.3-0.6-1.3-1.3c0-0.7,0.6-1.3,1.3-1.3c0.7,0,1.3,0.6,1.3,1.3C-1366.7,1273.8-1367.3,1274.4-1368,1274.4L-1368,1274.4z"/>
<path d="M-1374.4,1266.7v-5.8c0-0.5-0.4-0.9-0.9-0.9s-0.9,0.4-0.9,0.9v5.7c-1.4,0.5-2.1,2-1.6,3.4c0.3,0.7,0.9,1.3,1.6,1.6v7.4
	c0,0.5,0.4,0.9,0.9,0.9s0.9-0.4,0.9-0.9v-7.4c1.4-0.5,2.1-2.1,1.6-3.4C-1373.1,1267.5-1373.7,1266.9-1374.4,1266.7z M-1375.3,1270.5
	c-0.7,0-1.3-0.6-1.3-1.3c0-0.7,0.6-1.3,1.3-1.3c0.7,0,1.3,0.6,1.3,1.3C-1374,1269.9-1374.6,1270.5-1375.3,1270.5L-1375.3,1270.5z"/>
</svg>
