<?xml version="1.0" encoding="utf-8"?>
<!-- Generator: Adobe Illustrator 19.0.1, SVG Export Plug-In . SVG Version: 6.00 Build 0)  -->
<svg version="1.1" id="Layer_1" xmlns="http://www.w3.org/2000/svg" xmlns:xlink="http://www.w3.org/1999/xlink" x="0px" y="0px"
	 viewBox="0 0 276.3 303.2" enable-background="new 0 0 276.3 303.2" xml:space="preserve">
<linearGradient id="SVGID_1_" gradientUnits="userSpaceOnUse" x1="-21.1841" y1="207.5724" x2="275.9022" y2="122.3842">
	<stop  offset="0" style="stop-color:#A4D64E"/>
	<stop  offset="1" style="stop-color:#FFC000"/>
</linearGradient>
<path fill="url(#SVGID_1_)" d="M268.4,109.4c-4.9-4.9-11.3-7.3-18.2-7.3h-24V51.6c0-13.8-5.5-26.1-15.4-36
	c-9.9-9.9-22.3-15.4-36-15.4H99.4C85.6,0.2,73.9,5.7,64,15.6c-9.9,9.9-14.7,22.3-14.7,36v50.6H24c-6.9,0-12,2.3-17,7.3
	C2,114.4,0.3,120.1,0.3,127v150.9c0,6.9,1.7,12.9,6.7,17.8c4.9,4.9,10.1,7.5,20.1,7.5h226.3c3.8,0,10.1-2.6,15.1-7.5
	c4.9-4.9,7.9-10.9,7.9-17.8V127C276.3,120.1,273.4,114.4,268.4,109.4z M100.3,64.1c0-3.5,0.8-6.7,3.2-9.1c2.4-2.4,4.9-3.8,8.5-3.8
	h50.3c3.5,0,7.2,1.4,9.7,3.8c2.4,2.4,4.4,5.6,4.4,9.1v38h-76V64.1z M152.3,266.2h-29v-28h29V266.2z M166.5,206.3l-7,5.5
	c-7.1,5.6-10.2,8.3-10.2,16.2v2.3h-24v-3.4c0-12.4,1.7-19.2,13.9-29.5l6.8-6c6.6-5.3,9.2-11.3,9.2-17.9c0-9.6-5.7-14.7-15.3-14.7
	c-11.1,0-15.5,7.9-15.5,16.7c0,4.5,1.1,9.2,3,13.2l-27.8-2.4c-1.1-4.3-1.7-8.6-1.7-12.8c0-21.2,15.4-38,41.9-38
	c31.4,0,43,18.6,43,37.6C182.9,185.1,178,197.3,166.5,206.3z"/>
</svg>
