<?xml version="1.0" encoding="utf-8"?>
<!-- Generator: Adobe Illustrator 19.0.1, SVG Export Plug-In . SVG Version: 6.00 Build 0)  -->
<svg version="1.1" id="Layer_1" xmlns="http://www.w3.org/2000/svg" xmlns:xlink="http://www.w3.org/1999/xlink" x="0px" y="0px"
	 viewBox="0 0 291.3 550.6" enable-background="new 0 0 291.3 550.6" xml:space="preserve">
<g>
	<linearGradient id="SVGID_1_" gradientUnits="userSpaceOnUse" x1="398.9715" y1="586.0447" x2="228.9584" y2="-6.8614">
		<stop  offset="0" style="stop-color:#A4D64E"/>
		<stop  offset="1" style="stop-color:#FFC000"/>
	</linearGradient>
	<path fill="url(#SVGID_1_)" d="M259.9,74.8c14.5,0,26.4,11.8,26.4,26.4s-11.8,26.4-26.4,26.4s-26.4-11.8-26.4-26.4
		S245.4,74.8,259.9,74.8 M259.9,69.8c-17.3,0-31.4,14.1-31.4,31.4s14.1,31.4,31.4,31.4c17.3,0,31.4-14.1,31.4-31.4
		S277.3,69.8,259.9,69.8L259.9,69.8z"/>
	<linearGradient id="SVGID_2_" gradientUnits="userSpaceOnUse" x1="398.9651" y1="586.0226" x2="228.9604" y2="-6.8546">
		<stop  offset="0" style="stop-color:#A4D64E"/>
		<stop  offset="1" style="stop-color:#FFC000"/>
	</linearGradient>
	<path fill="url(#SVGID_2_)" d="M259.9,69.8c-7.3,0-14,2.5-19.4,6.7c4-3,9-4.7,14.4-4.7c13.4,0,24.4,10.9,24.4,24.4
		c0,13.4-10.9,24.4-24.4,24.4c-13.4,0-24.4-10.9-24.4-24.4c0-5.4,1.8-10.3,4.7-14.4c-4.2,5.3-6.7,12.1-6.7,19.4
		c0,17.3,14.1,31.4,31.4,31.4c17.3,0,31.4-14.1,31.4-31.4C291.3,83.8,277.3,69.8,259.9,69.8z"/>
	<linearGradient id="SVGID_3_" gradientUnits="userSpaceOnUse" x1="360.5718" y1="586.6152" x2="190.5587" y2="-6.2909">
		<stop  offset="0" style="stop-color:#A4D64E"/>
		<stop  offset="1" style="stop-color:#FFC000"/>
	</linearGradient>
	<path fill="url(#SVGID_3_)" d="M239.2,153c5.8,0,10.5,4.7,10.5,10.5S245,174,239.2,174s-10.5-4.7-10.5-10.5S233.5,153,239.2,153
		 M239.2,151c-6.9,0-12.5,5.6-12.5,12.5s5.6,12.5,12.5,12.5c6.9,0,12.5-5.6,12.5-12.5S246.1,151,239.2,151L239.2,151z"/>
	<linearGradient id="SVGID_4_" gradientUnits="userSpaceOnUse" x1="360.5661" y1="586.5952" x2="190.5613" y2="-6.282">
		<stop  offset="0" style="stop-color:#A4D64E"/>
		<stop  offset="1" style="stop-color:#FFC000"/>
	</linearGradient>
	<path fill="url(#SVGID_4_)" d="M239.2,151c-2.9,0-5.6,1-7.7,2.7c1.6-1.2,3.6-1.9,5.7-1.9c5.3,0,9.7,4.3,9.7,9.7
		c0,5.3-4.3,9.7-9.7,9.7c-5.3,0-9.7-4.3-9.7-9.7c0-2.1,0.7-4.1,1.9-5.7c-1.7,2.1-2.7,4.8-2.7,7.7c0,6.9,5.6,12.5,12.5,12.5
		c6.9,0,12.5-5.6,12.5-12.5C251.7,156.6,246.1,151,239.2,151z"/>
	<linearGradient id="SVGID_5_" gradientUnits="userSpaceOnUse" x1="332.3517" y1="543.3453" x2="162.3386" y2="-49.5608">
		<stop  offset="0" style="stop-color:#A4D64E"/>
		<stop  offset="1" style="stop-color:#FFC000"/>
	</linearGradient>
	<path fill="url(#SVGID_5_)" d="M190.5,35.5c7.3,0,13.3,5.9,13.3,13.3S197.8,62,190.5,62c-7.3,0-13.3-5.9-13.3-13.3
		S183.2,35.5,190.5,35.5 M190.5,33c-8.7,0-15.8,7.1-15.8,15.8s7.1,15.8,15.8,15.8c8.7,0,15.8-7.1,15.8-15.8S199.2,33,190.5,33
		L190.5,33z"/>
	<linearGradient id="SVGID_6_" gradientUnits="userSpaceOnUse" x1="332.345" y1="543.3219" x2="162.3402" y2="-49.5553">
		<stop  offset="0" style="stop-color:#A4D64E"/>
		<stop  offset="1" style="stop-color:#FFC000"/>
	</linearGradient>
	<path fill="url(#SVGID_6_)" d="M190.5,33c-3.7,0-7.1,1.3-9.7,3.4c2-1.5,4.5-2.4,7.2-2.4c6.8,0,12.3,5.5,12.3,12.3
		c0,6.8-5.5,12.3-12.3,12.3c-6.8,0-12.3-5.5-12.3-12.3c0-2.7,0.9-5.2,2.4-7.2c-2.1,2.7-3.4,6.1-3.4,9.7c0,8.7,7.1,15.8,15.8,15.8
		c8.7,0,15.8-7.1,15.8-15.8C206.3,40.1,199.2,33,190.5,33z"/>
	<linearGradient id="SVGID_7_" gradientUnits="userSpaceOnUse" x1="407.7753" y1="567.6911" x2="237.7622" y2="-25.215">
		<stop  offset="0" style="stop-color:#A4D64E"/>
		<stop  offset="1" style="stop-color:#FFC000"/>
	</linearGradient>
	<path fill="url(#SVGID_7_)" d="M250.7,3.2c9.2,0,16.8,7.5,16.8,16.8s-7.5,16.8-16.8,16.8s-16.8-7.5-16.8-16.8S241.5,3.2,250.7,3.2
		 M250.7,0c-11,0-20,8.9-20,20s8.9,20,20,20c11,0,20-8.9,20-20S261.7,0,250.7,0L250.7,0z"/>
	<linearGradient id="SVGID_8_" gradientUnits="userSpaceOnUse" x1="407.768" y1="567.6653" x2="237.7632" y2="-25.2119">
		<stop  offset="0" style="stop-color:#A4D64E"/>
		<stop  offset="1" style="stop-color:#FFC000"/>
	</linearGradient>
	<path fill="url(#SVGID_8_)" d="M250.7,0c-4.7,0-8.9,1.6-12.3,4.3c2.6-1.9,5.7-3,9.1-3c8.5,0,15.5,7,15.5,15.5
		c0,8.5-7,15.5-15.5,15.5c-8.5,0-15.5-7-15.5-15.5c0-3.4,1.1-6.6,3-9.1c-2.7,3.4-4.3,7.7-4.3,12.3c0,11,8.9,20,20,20
		c11,0,20-8.9,20-20C270.7,8.9,261.7,0,250.7,0z"/>
	<linearGradient id="SVGID_9_" gradientUnits="userSpaceOnUse" x1="173.5448" y1="517.3056" x2="35.5222" y2="35.9638">
		<stop  offset="0" style="stop-color:#A4D64E"/>
		<stop  offset="1" style="stop-color:#FFC000"/>
	</linearGradient>
	<path fill="url(#SVGID_9_)" d="M181.5,177.8L6.1,481.7c-12.5,21.7-5.2,50.3,16.5,62.8l0.1,0c21.7,12.5,50.6,4.8,63.1-16.8
		l175.4-303.8L181.5,177.8z M68.9,516.8c-6.3,11-18.2,17.7-31.2,17.7c0,0,0.2-0.2,0.2-0.2c-6.3,0-12.2-1.9-17.5-5l-0.1-0.1
		c-0.1-0.1-0.3,0-0.3,0c-4.1-4.3-7-9.5-8.6-15.5c-2.5-9.4-1.2-18.9,3.5-27.1l170.4-295.2l53.2,30.7L68.9,516.8z"/>
	<linearGradient id="SVGID_10_" gradientUnits="userSpaceOnUse" x1="66.8643" y1="557.1425" x2="229.2049" y2="-9.0067">
		<stop  offset="0" style="stop-color:#A4D64E"/>
		<stop  offset="1" style="stop-color:#FFC000"/>
	</linearGradient>
	<path fill="url(#SVGID_10_)" d="M176.8,226L23.4,491.7c-3.4,5.9-4.3,12.8-2.5,19.5c1,3.8,2.8,7.4,5.3,10.3c3.7,2,7.7,3,11.6,3
		l1.3,0c8.9-0.5,16.9-5.3,21.2-12.7L224.8,226L176.8,226z"/>
</g>
</svg>
