<?xml version="1.0" encoding="utf-8"?>
<!-- Generator: Adobe Illustrator 19.0.1, SVG Export Plug-In . SVG Version: 6.00 Build 0)  -->
<svg version="1.1" id="Layer_1" xmlns="http://www.w3.org/2000/svg" xmlns:xlink="http://www.w3.org/1999/xlink" x="0px" y="0px"
	 viewBox="0 0 266.6 43.2" enable-background="new 0 0 266.6 43.2" xml:space="preserve">
<g>
	<linearGradient id="SVGID_1_" gradientUnits="userSpaceOnUse" x1="-2.9158" y1="22.7046" x2="321.8268" y2="-70.4138">
		<stop  offset="0" style="stop-color:#A4CF50"/>
		<stop  offset="1" style="stop-color:#FDC010"/>
	</linearGradient>
	<path fill="url(#SVGID_1_)" d="M20.6,33.7V18.9c-3.8-0.7-9.4-0.7-12.3,2v12.9H0v-32h8.3v13c3.8-3,8.5-3,12.3-3v-10h8.3v32H20.6z"/>
	<linearGradient id="SVGID_2_" gradientUnits="userSpaceOnUse" x1="-29.3889" y1="36.2743" x2="451.8655" y2="-101.7232">
		<stop  offset="0" style="stop-color:#A4CF50"/>
		<stop  offset="1" style="stop-color:#FDC010"/>
	</linearGradient>
	<path fill="url(#SVGID_2_)" d="M32.5,4.2c0-2.4,1.9-4.2,4.2-4.2C39.1,0,41,1.9,41,4.2s-1.9,4.3-4.3,4.3C34.4,8.5,32.5,6.6,32.5,4.2
		z M33,33.7V10.6h7.4v23.2H33z"/>
	<linearGradient id="SVGID_3_" gradientUnits="userSpaceOnUse" x1="-10.6609" y1="45.4297" x2="311.1074" y2="-46.8358">
		<stop  offset="0" style="stop-color:#A4CF50"/>
		<stop  offset="1" style="stop-color:#FDC010"/>
	</linearGradient>
	<path fill="url(#SVGID_3_)" d="M44.6,39.7l3.2-5.2c1.8,1.9,4.4,2.7,7.1,2.7c2.4,0,5.9-1.1,5.9-5.5V30c-1.9,2.3-4.2,3.4-6.9,3.4
		c-5.7,0-10.2-3.9-10.2-11.7C43.8,14,48.1,10,53.9,10c2.6,0,5,1,6.9,3.3v-2.7h7.4v21.2c0,9.4-7.5,11.4-13.3,11.4
		C50.9,43.2,47.6,42.1,44.6,39.7z M60.8,24.8v-6.2c-0.9-1.2-2.9-2.1-4.4-2.1c-2.9,0-5.1,1.8-5.1,5.1c0,3.4,2.2,5.2,5.1,5.2
		C57.9,26.8,59.9,26,60.8,24.8z"/>
	<linearGradient id="SVGID_4_" gradientUnits="userSpaceOnUse" x1="-12.4668" y1="45.2728" x2="288.5273" y2="-41.0359">
		<stop  offset="0" style="stop-color:#A4CF50"/>
		<stop  offset="1" style="stop-color:#FDC010"/>
	</linearGradient>
	<path fill="url(#SVGID_4_)" d="M87.7,33.7V20.3c0-2.8-1.5-3.7-3.8-3.7c-2.2,0-3.6,1.2-4.5,2.3v15H72v-32h7.4v11.7
		c1.4-1.6,4.1-3.4,8-3.4c5.3,0,7.7,3,7.7,7.2v16.5H87.7z"/>
	<linearGradient id="SVGID_5_" gradientUnits="userSpaceOnUse" x1="4.1912" y1="52.5789" x2="260.9777" y2="-21.0535">
		<stop  offset="0" style="stop-color:#A4CF50"/>
		<stop  offset="1" style="stop-color:#FDC010"/>
	</linearGradient>
	<path fill="url(#SVGID_5_)" d="M97.5,22.1c0-6.7,5-12.1,12.3-12.1c6.9,0,11.9,5,11.9,12.9v1.7h-16.5c0.5,2.1,2.4,3.8,5.8,3.8
		c1.6,0,4.3-0.7,5.7-2l3.2,4.8c-2.3,2.1-6.1,3.1-9.7,3.1C102.9,34.3,97.5,29.7,97.5,22.1z M109.8,15.9c-3.2,0-4.5,1.9-4.8,3.6h9.6
		C114.4,17.9,113.2,15.9,109.8,15.9z"/>
	<linearGradient id="SVGID_6_" gradientUnits="userSpaceOnUse" x1="-46.4972" y1="72.065" x2="314.6104" y2="-31.4809">
		<stop  offset="0" style="stop-color:#A4CF50"/>
		<stop  offset="1" style="stop-color:#FDC010"/>
	</linearGradient>
	<path fill="url(#SVGID_6_)" d="M123.9,33.7V10.6h7.4v2.8c1.5-1.9,4.5-3.5,7.2-3.5V17c-0.4-0.1-1.1-0.2-1.8-0.2
		c-1.9,0-4.5,0.8-5.4,2.1v14.8H123.9z"/>
	<linearGradient id="SVGID_7_" gradientUnits="userSpaceOnUse" x1="-28.5021" y1="68.9135" x2="292.9346" y2="-23.257">
		<stop  offset="0" style="stop-color:#A4CF50"/>
		<stop  offset="1" style="stop-color:#FDC010"/>
	</linearGradient>
	<path fill="url(#SVGID_7_)" d="M143.6,33.7V16.9h-3.8v-6.4h3.8V10c0-5.8,3.7-8.8,8.3-8.8c2,0,3.7,0.3,4.9,0.9l-1.4,5.5
		c-0.4-0.3-1.2-0.5-2-0.5c-1.3,0-2.4,0.9-2.4,2.8v0.5h4.7v6.4H151v16.8H143.6z"/>
	<linearGradient id="SVGID_8_" gradientUnits="userSpaceOnUse" x1="-59.0337" y1="85.788" x2="302.0739" y2="-17.7579">
		<stop  offset="0" style="stop-color:#A4CF50"/>
		<stop  offset="1" style="stop-color:#FDC010"/>
	</linearGradient>
	<path fill="url(#SVGID_8_)" d="M159.2,33.7V10.6h7.4v2.8c1.5-1.9,4.5-3.5,7.2-3.5V17c-0.4-0.1-1.1-0.2-1.8-0.2
		c-1.9,0-4.5,0.8-5.4,2.1v14.8H159.2z"/>
	<linearGradient id="SVGID_9_" gradientUnits="userSpaceOnUse" x1="-12.705" y1="80.4933" x2="274.2512" y2="-1.7901">
		<stop  offset="0" style="stop-color:#A4CF50"/>
		<stop  offset="1" style="stop-color:#FDC010"/>
	</linearGradient>
	<path fill="url(#SVGID_9_)" d="M192.3,33.7v-2.7c-1.9,2.2-4.3,3.3-6.9,3.3c-5.7,0-10.2-4.3-10.2-12.2c0-7.6,4.4-12.1,10.2-12.1
		c2.5,0,5,1,6.8,3.3v-2.7h7.4v23.2H192.3z M192.3,25.7v-7.1c-1-1.2-2.9-2.1-4.5-2.1c-2.9,0-5.1,2.1-5.1,5.6c0,3.5,2.2,5.7,5.1,5.7
		C189.4,27.8,191.3,26.9,192.3,25.7z"/>
	<linearGradient id="SVGID_10_" gradientUnits="userSpaceOnUse" x1="-12.9278" y1="89.4337" x2="268.5835" y2="8.7116">
		<stop  offset="0" style="stop-color:#A4CF50"/>
		<stop  offset="1" style="stop-color:#FDC010"/>
	</linearGradient>
	<path fill="url(#SVGID_10_)" d="M232.6,33.7V19.6c0-1.8-0.9-3.1-3.1-3.1c-2,0-3.5,1.3-4.2,2.3v15H218V19.6c0-1.8-0.8-3.1-3-3.1
		c-2,0-3.4,1.3-4.2,2.3v15h-7.4V10.6h7.4v2.8c1-1.3,4-3.4,7.6-3.4c3.4,0,5.6,1.4,6.6,4.1c1.3-2,4.4-4.1,8-4.1c4.3,0,7,2.2,7,7v16.8
		H232.6z"/>
	<linearGradient id="SVGID_11_" gradientUnits="userSpaceOnUse" x1="9.4808" y1="92.6287" x2="266.2688" y2="18.9959">
		<stop  offset="0" style="stop-color:#A4CF50"/>
		<stop  offset="1" style="stop-color:#FDC010"/>
	</linearGradient>
	<path fill="url(#SVGID_11_)" d="M242.4,22.1c0-6.7,5-12.1,12.3-12.1c6.9,0,11.9,5,11.9,12.9v1.7h-16.5c0.5,2.1,2.4,3.8,5.8,3.8
		c1.6,0,4.3-0.7,5.7-2l3.2,4.8c-2.3,2.1-6.1,3.1-9.7,3.1C247.9,34.3,242.4,29.7,242.4,22.1z M254.7,15.9c-3.2,0-4.5,1.9-4.8,3.6h9.6
		C259.3,17.9,258.1,15.9,254.7,15.9z"/>
</g>
</svg>
