<svg version="1.1" id="Layer_1" xmlns="http://www.w3.org/2000/svg" xmlns:xlink="http://www.w3.org/1999/xlink" x="0px" y="0px"
	 viewBox="-11 593 256 256" style="enable-background:new -11 593 256 256;" xml:space="preserve">
<path d="M28.2,625v15.1V669h15v-29h29v-15H42.7H28.2z M166.2,669h15v-28.9V625h-15.7h-29.3v15h30V669z M87.2,625h34v15h-34V625z
	 M28.2,684h15v25h-15V684z M43.2,724h-15v29.8V768h14.5h29.5v-14h-29V724z M87.2,754h34v14h-34V754z M166.2,684h15v25h-15V684z
	 M214.6,759.8l-68-61.3c-4.7-4.3-8.6-3.2-10.1-2.6c-1.5,0.7-4.8,2.9-4.8,9.2l0.7,90.6c0,6.3,3.5,8.6,4.9,9.2
	c1.5,0.7,5.4,1.8,10.2-2.2l13.2-11.1c0.9-0.8,1.9-1.1,2.7-0.9c0.8,0.2,1.6,0.9,2.1,2l12.3,27.2c1.5,3.4,4.2,6.1,7.6,7.6
	c1.8,0.8,3.6,1.2,5.5,1.2c1.8,0,3.5-0.4,5.2-1.1c3.3-1.5,5.8-4.4,7-8c1.1-3.5,0.8-7.3-0.7-10.7l-12.3-27.2c-0.5-1.1-0.6-2.1-0.2-2.7
	c0.4-0.7,1.2-1.1,2.4-1.3l17.4-2.2c6.3-0.8,8.1-4.4,8.6-6C218.7,768.1,219.3,764.1,214.6,759.8z M208.6,766.7l-17.4,2.2
	c-4,0.5-7.4,2.6-9.2,5.8s-1.9,7.1-0.2,10.9l12.3,27.2c0.6,1.4,0.7,3,0.3,4.3c-0.2,0.7-0.8,1.9-2.1,2.5s-2.6,0.2-3.3-0.1
	c-1.3-0.6-2.4-1.7-3-3.1l-12.3-27.2c-1.7-3.7-4.7-6.3-8.3-7.1c-0.8-0.2-1.6-0.3-2.5-0.3c-2.8,0-5.7,1.1-8.1,3.1L141.6,796
	c-0.1,0.1-0.2,0.2-0.3,0.3c0-0.1,0-0.3,0-0.4l-0.7-90.4l67.8,61.2H208.6C208.7,766.6,208.6,766.6,208.6,766.7z"/>
</svg>
