<?xml version="1.0" encoding="utf-8"?>
<!-- Generator: Adobe Illustrator 19.0.1, SVG Export Plug-In . SVG Version: 6.00 Build 0)  -->
<svg version="1.1" id="Layer_1" xmlns="http://www.w3.org/2000/svg" xmlns:xlink="http://www.w3.org/1999/xlink" x="0px" y="0px"
	 viewBox="0 90.3 612 611.5" enable-background="new 0 90.3 612 611.5" xml:space="preserve">
<path d="M584.6,412.7c-34.2-9.2-41.9-89.3-13.9-105.4c9.2-5.3,16.3-12.9,21-21.6c-7.3-26.6-32.2-64.9-46.2-81.9
	c-10.3-0.5-20.7,1.9-30.3,7.4c-30.6,17.7-93.8-29.6-84.4-64.7c2.9-11,1.4-24.3-1-32.1c-17.4-9-58.5-21.1-89.1-24.1
	c-6.6,4.8-14.1,16.4-17.1,27.4c-10,37.2-88.9,42.6-105.8,13.3c-5.6-9.8-16.1-18.9-23.2-21.9c-19.8,6-62.7,30.9-80.1,45.3
	c1.2,10.2,1.4,22,7.3,32.1c16.9,29.3-28.9,94.5-65,84.8c-11.9-3.2-24.4-2.3-34.6,1.9C13.9,291.7,1.2,340.7,0,360.5
	c2.4,5.4,16.7,14.9,28.1,17.9c49.2,13.2,49.6,85.4,13.9,106c-10.1,5.8-18.7,13.9-22.3,24.1c6,19.2,30.1,61.3,45.6,79.3
	c10.2,1.2,22-1.4,32.1-7.3c31.8-18.4,95.5,24.9,84.8,65.1c-2.8,10.5-1.2,21.5,0.5,32.3c24,10.2,67.3,24.5,91.3,23.9
	c7.8-7.2,12.6-17.2,15.3-27.4c9.4-35.2,87.2-46.4,105.6-14.6c5.1,8.9,12.3,17.4,20.7,22.1c25.2-7.2,69.4-31.9,84.4-47.5
	c0.6-11.4-3.7-20.9-9-30.1c-19.9-34.4,26.5-94.6,64.7-84.4c10.5,2.8,21.8,1.8,31.4-0.5c8.4-21,22.3-58.4,24.7-89.6
	C603.6,420.2,595.7,415.7,584.6,412.7z M468.3,435.9c-23.3,87-112.7,138.6-199.7,115.3c-87-23.3-138.6-112.7-115.3-199.8
	S266,212.9,353,236.2C440,259.5,491.6,348.9,468.3,435.9z"/>
</svg>
