<svg version="1.1" id="Layer_1" xmlns="http://www.w3.org/2000/svg" xmlns:xlink="http://www.w3.org/1999/xlink" x="0px" y="0px"
	 viewBox="-114 696 50 50" style="enable-background:new -114 696 50 50;" xml:space="preserve">
<g>
	<path d="M-70.6,706.7h-36.8c-1.8,0-3.3,1.5-3.3,3.3v21.9c0,1.8,1.5,3.3,3.3,3.3h36.8c1.8,0,3.3-1.5,3.3-3.3v-21.9
		C-67.3,708.2-68.8,706.7-70.6,706.7z M-107.4,709h36.8c0.6,0,1.1,0.5,1.1,1.1v3.8h-39v-3.8C-108.5,709.5-108,709-107.4,709z
		 M-70.6,733h-36.8c-0.6,0-1.1-0.5-1.1-1.1V716h39v15.9C-69.5,732.5-70,733-70.6,733z"/>
	<circle cx="-105.4" cy="711.5" r="1.2"/>
	<circle cx="-102.1" cy="711.5" r="1.2"/>
	<circle cx="-98.7" cy="711.5" r="1.2"/>
</g>
</svg>
