<svg version="1.1" id="Layer_1" xmlns="http://www.w3.org/2000/svg" xmlns:xlink="http://www.w3.org/1999/xlink" x="0px" y="0px"
	 viewBox="-89 671 100 100" style="enable-background:new -89 671 100 100;" xml:space="preserve">
<path d="M3.5,701h-85c-1.4,0-2.5,1.1-2.5,2.5v35c0,1.4,1.1,2.5,2.5,2.5h85c1.4,0,2.5-1.1,2.5-2.5v-35C6,702.1,4.9,701,3.5,701z
	 M1,736h-80v-30H1V736z"/>
<path d="M-15.5,718.5H-63c-1.4,0-2.5,1.1-2.5,2.5s1.1,2.5,2.5,2.5h47.5c1.4,0,2.5-1.1,2.5-2.5S-14.1,718.5-15.5,718.5z"/>
</svg>
