<svg xmlns="http://www.w3.org/2000/svg" xmlns:xlink="http://www.w3.org/1999/xlink" version="1.1" x="0px" y="0px" viewBox="0 0 100 100" enable-background="new 0 0 100 100" xml:space="preserve"><path d="M82.5,5h-65C10.6,5,5,10.6,5,17.5v65C5,89.4,10.6,95,17.5,95h65C89.4,95,95,89.4,95,82.5v-65C95,10.6,89.4,5,82.5,5z   M90,82.5c0,4.1-3.4,7.5-7.5,7.5h-65c-4.1,0-7.5-3.4-7.5-7.5v-65c0-4.1,3.4-7.5,7.5-7.5h65c4.1,0,7.5,3.4,7.5,7.5V82.5z"></path><path d="M72.5,30h-45c-1.4,0-2.5,1.1-2.5,2.5s1.1,2.5,2.5,2.5h45c1.4,0,2.5-1.1,2.5-2.5S73.9,30,72.5,30z"></path><path d="M72.5,47.5h-45c-1.4,0-2.5,1.1-2.5,2.5s1.1,2.5,2.5,2.5h45c1.4,0,2.5-1.1,2.5-2.5S73.9,47.5,72.5,47.5z"></path><path d="M72.5,65h-45c-1.4,0-2.5,1.1-2.5,2.5s1.1,2.5,2.5,2.5h45c1.4,0,2.5-1.1,2.5-2.5S73.9,65,72.5,65z"></path></svg>