<svg version="1.1" id="Layer_1" xmlns="http://www.w3.org/2000/svg" xmlns:xlink="http://www.w3.org/1999/xlink" x="0px" y="0px"
	 viewBox="-77.7 682.3 77.3 77.3" style="enable-background:new -77.7 682.3 77.3 77.3;" xml:space="preserve">
<path d="M-56.5,741h35c1.4,0,2.5-1.1,2.5-2.5v-35c0-1.4-1.1-2.5-2.5-2.5h-35c-1.4,0-2.5,1.1-2.5,2.5v35C-59,739.9-57.9,741-56.5,741
	z M-54,706h30v30h-30V706z"/>
<path d="M-32,713.6l-9.5,9.5l-4.5-4.5c-1-1-2.6-1-3.5,0c-1,1-1,2.6,0,3.5l6.2,6.2c0.5,0.5,1.1,0.7,1.8,0.7s1.3-0.2,1.8-0.7
	l11.2-11.2c1-1,1-2.6,0-3.5C-29.5,712.6-31,712.6-32,713.6z"/>
</svg>
