<svg xmlns="http://www.w3.org/2000/svg" xmlns:xlink="http://www.w3.org/1999/xlink" xmlns:sketch="http://www.bohemiancoding.com/sketch/ns" viewBox="0 0 60 60" version="1.1" x="0px" y="0px"><title>125 - Edit Oval Line (Solid)</title><desc>Created with Sketch.</desc><g stroke="none" stroke-width="1" fill="none" fill-rule="evenodd" sketch:type="MSPage"><g sketch:type="MSLayerGroup" fill="#000000"><path d="M60,26 L56.675,26 C54.93,14.212 45.788,5.07 34,3.324 L34,0 L26,0 L26,3.324 C14.212,5.07 5.07,14.212 3.325,26 L0,26 L0,34 L3.325,34 C5.07,45.788 14.212,54.93 26,56.676 L26,60 L34,60 L34,56.676 C45.788,54.93 54.93,45.788 56.675,34 L60,34 L60,26 L60,26 Z M34,54.676 L34,52 L26,52 L26,54.676 C15.32,52.97 7.03,44.68 5.324,34 L8,34 L8,26 L5.324,26 C7.03,15.32 15.32,7.03 26,5.324 L26,8 L34,8 L34,5.324 C44.68,7.03 52.97,15.32 54.676,26 L52,26 L52,34 L54.676,34 C52.97,44.68 44.68,52.97 34,54.676 L34,54.676 Z" sketch:type="MSShapeGroup"></path></g></g></svg>