<svg version="1.1" id="Layer_1" xmlns="http://www.w3.org/2000/svg" xmlns:xlink="http://www.w3.org/1999/xlink" x="0px" y="0px"
	 viewBox="-99 661 120 120" style="enable-background:new -99 661 120 120;" xml:space="preserve">
<path d="M5,721c0-0.1,0-0.2,0-0.3c0-5.2-1-10.2-2.7-14.8c0-0.1-0.1-0.1-0.1-0.2c-0.1-0.3-0.2-0.5-0.3-0.8c-0.1-0.3-0.3-0.6-0.4-0.9
	c0,0,0,0,0,0c-6.6-15.7-22.1-26.7-40.2-26.9c-0.1,0-0.2,0-0.3,0c-0.1,0-0.2,0-0.3,0c-5.6,0-10.9,1.1-15.8,3c0,0-0.1,0-0.1,0
	c-0.3,0.1-0.6,0.2-0.9,0.4c-0.2,0.1-0.4,0.2-0.6,0.2c-0.1,0.1-0.3,0.1-0.4,0.2c-15.2,6.8-25.8,22.1-25.9,39.8c0,0.1,0,0.2,0,0.3
	c0,0.1,0,0.2,0,0.3c0,5.6,1.1,10.9,3,15.8c0.1,0.2,0.1,0.3,0.2,0.5c0.1,0.2,0.1,0.3,0.2,0.5c6.6,15.7,22.1,26.8,40.2,26.9
	c0.1,0,0.2,0,0.3,0c0.1,0,0.2,0,0.3,0c4.8,0,9.5-0.8,13.8-2.3c0.2-0.1,0.4-0.1,0.5-0.2c0.2-0.1,0.3-0.1,0.5-0.2
	c16.7-6.1,28.7-22.2,28.9-41C5,721.2,5,721.1,5,721z M-37.8,690.9c4.3,0,7.9,3.7,7.9,8c0,4.4-3.6,8-7.9,8c-4.4,0-7.9-3.6-7.9-8
	C-45.7,694.5-42.2,690.9-37.8,690.9z M-27.1,745.8c-2.7,3-6.1,4.9-10.2,5.2c-2.3,0.2-4.5,0.3-6.8-0.3c-4.1-1.1-6.8-4.9-6.3-9.1
	c0.5-4.2,1.3-8.3,2-12.4c0.6-3.6,1.3-7.2,1.8-10.8c0.1-0.6,0-1.2,0-1.8c-0.1-1-0.8-1.7-1.8-1.9c-0.6-0.1-1.2,0-1.8-0.2
	c-0.8-0.2-1.7-0.4-2.4-0.9c-1.1-0.8-0.9-2.3,0.4-2.9c0.6-0.3,1.3-0.4,2-0.4c2.6,0,5.2,0,7.8,0c0,0,0,0,0,0c2.6,0,5.3,0,7.9,0
	c1.7,0,2.5,0.7,2.9,2.4c0.3,1.5-0.1,2.8-0.4,4.2c-1.1,5.9-2.2,11.8-3.3,17.8c-0.3,1.8-0.6,3.7-0.9,5.5c-0.1,0.3,0,0.6,0,0.9
	c0,3.6,2.3,4.1,4.9,3c0.7-0.3,1.4-0.8,2.1-1.2c1.2-0.7,1.9-0.7,2.4-0.1C-26.2,743.8-26.2,744.8-27.1,745.8z"/>
</svg>
