<svg xmlns="http://www.w3.org/2000/svg" xmlns:xlink="http://www.w3.org/1999/xlink" version="1.1" x="0px" y="0px" viewBox="0 0 96 99.818" enable-background="new 0 0 96 99.818" xml:space="preserve"><g><path d="M41.926,43.112c0,3.403-2.761,6.166-6.17,6.166c-3.398,0-6.17-2.762-6.17-6.166c0-3.41,2.772-6.169,6.17-6.169   C39.162,36.943,41.926,39.702,41.926,43.112z"></path><path d="M77.922,25.429c-2.719,0-59.842,0-59.842,0s-2.717,0-2.717,2.721c0,2.72,0,43.522,0,43.522s0,2.716,2.717,2.716   c2.721,0,59.842,0,59.842,0s2.716,0,2.716-2.716c0-2.723,0-43.522,0-43.522S80.638,25.429,77.922,25.429z M75.203,68.95H20.801   V30.87h54.402V68.95z"></path><path d="M70.896,64.33c0,0-2.54-14.74-10.175-14.74c-7.631,0-10.176,9.831-15.258,9.831c-5.098,0-5.098-2.463-10.18-2.463   c-5.092,0-10.18,7.372-10.18,7.372H70.896L70.896,64.33z"></path></g></svg>