<?xml version="1.0" encoding="utf-8"?>
<!-- Generator: Adobe Illustrator 19.0.1, SVG Export Plug-In . SVG Version: 6.00 Build 0)  -->
<svg version="1.1" id="Layer_1" xmlns="http://www.w3.org/2000/svg" xmlns:xlink="http://www.w3.org/1999/xlink" x="0px" y="0px"
	 viewBox="-255 334.4 100 100" enable-background="new -255 334.4 100 100" xml:space="preserve">
<g>
	<path d="M-173,380.3l8-7.9c-22.1-21.9-57.9-21.9-80,0l8,7.9C-219.3,362.8-190.7,362.8-173,380.3z"/>
	<path d="M-202.2,401.2c-3.7-0.9-7.9,0-10.8,2.9l8,7.9l4.7-4.6C-201.2,405.5-201.8,403.4-202.2,401.2z"/>
	<path d="M-200.5,390.1c2.2-3.6,6-5.9,10.1-5.9l0.1,0c0.5,0,1,0,1.4,0.1c0.1-0.5,0.3-1,0.6-1.5c-13-7.3-29.7-5.5-40.8,5.5l8,7.9
		C-215.4,390.6-207.7,388.6-200.5,390.1z"/>
</g>
<g>
	<title>Layer 1</title>
	<g id="svg_1_1_">
		<path d="M-176.2,397.5c0,5,4.4,6.6,4.4,6.6c0,0.1-0.7,2.4-2.3,4.7c-1.4,2-2.8,4-5,4c-2.2,0-2.9-1.3-5.4-1.3
			c-2.5,0-3.3,1.3-5.4,1.3c-2.2,0.1-3.8-2.2-5.2-4.1c-2.8-4.1-5-11.5-2.1-16.5c1.4-2.5,4-4.1,6.8-4.1c2.1,0,4.1,1.4,5.4,1.4
			c1.3,0,3.7-1.8,6.3-1.5c1.1,0,4.1,0.4,6,3.3C-172.8,391.4-176.2,393.4-176.2,397.5 M-180.3,385.3c1.1-1.4,1.9-3.3,1.7-5.2
			c-1.6,0.1-3.6,1.1-4.8,2.5c-1.1,1.2-2,3.2-1.7,5.1C-183.3,387.8-181.5,386.7-180.3,385.3"/>
	</g>
</g>
</svg>
