<?xml version="1.0" encoding="utf-8"?>
<!-- Generator: Adobe Illustrator 19.0.1, SVG Export Plug-In . SVG Version: 6.00 Build 0)  -->
<svg version="1.1" id="Layer_1" xmlns="http://www.w3.org/2000/svg" xmlns:xlink="http://www.w3.org/1999/xlink" x="0px" y="0px"
	 viewBox="-304.5 334 100 100" enable-background="new -304.5 334 100 100" xml:space="preserve">
<path d="M-236.9,334h-35.3c-4.3,0-7.8,3.5-7.8,7.8v84.3c0,4.3,3.5,7.8,7.8,7.8h35.3c4.3,0,7.8-3.5,7.8-7.8v-84.3
	C-229.1,337.5-232.6,334-236.9,334z M-258.4,342.3h7.7c0.6,0,1,0.5,1,1c0,0.6-0.5,1-1,1h-7.7c-0.6,0-1-0.5-1-1
	C-259.4,342.8-259,342.3-258.4,342.3z M-262.9,341.9c0.7,0,1.2,0.6,1.2,1.2s-0.6,1.2-1.2,1.2c-0.7,0-1.2-0.6-1.2-1.2
	S-263.6,341.9-262.9,341.9z M-254.5,429.8c-2.7,0-4.9-2.2-4.9-4.9c0-2.7,2.2-4.9,4.9-4.9c2.7,0,4.9,2.2,4.9,4.9
	C-249.6,427.6-251.8,429.8-254.5,429.8z M-233,416.5h-43.1v-65h43.1V416.5z"/>
</svg>
