<svg version="1.1" id="Layer_1" xmlns="http://www.w3.org/2000/svg" xmlns:xlink="http://www.w3.org/1999/xlink" x="0px" y="0px"
	 viewBox="-89 675.1 100 91.4" style="enable-background:new -89 675.1 100 91.4;" xml:space="preserve">
<g>
	<path d="M-56.2,676h34.5c1.6,0.1,3.1,0.8,4.2,1.9c1,1.1,1.7,2.5,1.7,4v78c-0.1,1.6-0.8,3.1-1.9,4.2c-1.1,1.1-2.6,1.7-4.1,1.8h-34.5
		c-1.6-0.1-3.1-0.8-4.2-1.9c-1-1.1-1.7-2.5-1.7-4v-78c0.1-1.5,0.7-3.1,1.8-4.1C-59.2,676.7-57.7,676.1-56.2,676 M-59.2,682.1
		c0,2.2,0,4.3,0,6.5c13.6,0,27.1,0,40.7,0c0-2.1,0-4.2,0-6.4c0-1.3-0.9-2.5-2.1-3c-0.7-0.3-1.4-0.3-2.1-0.3c-11,0-22.1,0-33.1,0
		C-57.6,678.9-59.2,680.4-59.2,682.1 M-59.2,691.5c0,19,0,38.1,0,57.1c13.6,0,27.1,0,40.7,0c0-19,0-38.1,0-57.1
		C-32.1,691.5-45.7,691.5-59.2,691.5 M-59.2,751.6c0,2.7,0,5.5,0,8.2c0,1,0.5,2,1.3,2.7c0.6,0.5,1.4,0.8,2.1,0.7c11.3,0,22.6,0,34,0
		c1.7,0,3.2-1.5,3.3-3.2c0-2.8,0-5.6,0-8.4C-32.1,751.6-45.7,751.6-59.2,751.6z"/>
	<path d="M-44.1,682.8c0.2-0.1,0.3-0.1,0.5-0.1c3.2,0,6.4,0,9.6,0c0.5,0,1,0.4,1,1c0,0.5-0.5,1-1,1c-3.2,0-6.5,0-9.7,0
		c-0.5,0-0.9-0.4-1-0.9C-44.8,683.4-44.5,683-44.1,682.8z"/>
	<path d="M-51.5,708c8.7,0,17.4,0,26.1,0c0,0.6,0,1.3,0,1.9c-8.7,0-17.4,0-26.1,0C-51.5,709.2-51.5,708.6-51.5,708z"/>
	<path d="M-46.6,713.8c5.5,0,11,0,16.5,0c0,0.6,0,1.3,0,1.9c-5.5,0-11,0-16.5,0C-46.6,715-46.6,714.5-46.6,713.8z"/>
	<path d="M-51.5,719.5c8.7,0,17.4,0,26.1,0c0,0.6,0,1.3,0,1.9c-8.7,0-17.4,0-26.1,0C-51.5,720.8-51.5,720.2-51.5,719.5z"/>
	<path d="M-46.6,725.5c5.5,0,11,0,16.5,0c0,0.6,0,1.3,0,1.9c-5.5,0-11,0-16.5,0C-46.7,726.6-46.6,726-46.6,725.5z"/>
	<path d="M-51.5,731.2c8.7,0,17.4,0,26.1,0c0,0.6,0,1.3,0,1.9c-8.7,0-17.4,0-26.1,0C-51.5,732.5-51.5,731.8-51.5,731.2z"/>
	<path d="M-39.8,753.4c1-0.2,2,0,2.8,0.5s1.5,1.3,1.8,2.2c0.3,1,0.3,2.1-0.1,3c-0.4,1-1.2,1.7-2.2,2.1c-1,0.4-2.1,0.4-3.1-0.1
		c-0.9-0.4-1.7-1.2-2.1-2.2c-0.5-1.1-0.4-2.5,0.2-3.6C-42,754.4-41,753.6-39.8,753.4 M-39.6,755.4c-0.7,0.2-1.3,0.8-1.5,1.6
		c-0.2,0.7,0.1,1.6,0.7,2.1s1.4,0.6,2.1,0.4c0.7-0.3,1.2-0.9,1.3-1.7c0.1-0.7-0.2-1.4-0.7-1.9C-38.2,755.2-39,755.1-39.6,755.4z"/>
</g>
</svg>
