<svg xmlns="http://www.w3.org/2000/svg" xmlns:xlink="http://www.w3.org/1999/xlink" xmlns:sketch="http://www.bohemiancoding.com/sketch/ns" viewBox="0 0 30 30" version="1.1" x="0px" y="0px"><title>device_001-smartphone-phone-mobile-cellphone-tel-iphone</title><desc>Created with Sketch.</desc><g stroke="none" stroke-width="1" fill="none" fill-rule="evenodd" sketch:type="MSPage"><g sketch:type="MSArtboardGroup" transform="translate(-45.000000, -45.000000)" fill="#000000"><path d="M53.5052412,46 L66.4947588,46 C67.3260806,46 68,46.6645216 68,47.5054016 L68,72.4945984 C68,73.3260087 67.3328702,74 66.4947588,74 L53.5052412,74 C52.6739194,74 52,73.3354784 52,72.4945984 L52,47.5054016 C52,46.6739913 52.6671298,46 53.5052412,46 Z M53,69 L67,69 L67,51 L53,51 L53,69 Z M53,47.4961679 C53,47.2221419 53.2199066,47 53.4982674,47 L66.5017326,47 C66.7769181,47 67,47.2247715 67,47.4961679 L67,50 L53,50 L53,47.4961679 Z M53,72.5038321 C53,72.7752285 53.2230819,73 53.4982674,73 L66.5017326,73 C66.7800934,73 67,72.7778581 67,72.5038321 L67,70 L53,70 L53,72.5038321 Z M59.4904785,48 L62.5095215,48 C62.7804053,48 63,48.2319336 63,48.5 C63,48.7761424 62.7849426,49 62.5095215,49 L59.4904785,49 C59.2195947,49 59,48.7680664 59,48.5 C59,48.2238576 59.2150574,48 59.4904785,48 Z M57.5,49 C57.7761424,49 58,48.7761424 58,48.5 C58,48.2238576 57.7761424,48 57.5,48 C57.2238576,48 57,48.2238576 57,48.5 C57,48.7761424 57.2238576,49 57.5,49 Z M60,72.5 C60.5522847,72.5 61,72.0522847 61,71.5 C61,70.9477153 60.5522847,70.5 60,70.5 C59.4477153,70.5 59,70.9477153 59,71.5 C59,72.0522847 59.4477153,72.5 60,72.5 Z" sketch:type="MSShapeGroup"></path></g></g></svg>