<svg version="1.1" id="Layer_1" xmlns:sketch="http://www.bohemiancoding.com/sketch/ns"
	 xmlns="http://www.w3.org/2000/svg" xmlns:xlink="http://www.w3.org/1999/xlink" x="0px" y="0px" viewBox="-116 684 74 74"
	 style="enable-background:new -116 684 74 74;" xml:space="preserve">
<title>130 - Edit Rounding Box (Solid)</title>
<desc>Created with Sketch.</desc>
<g sketch:type="MSPage">
	<g sketch:type="MSLayerGroup">
		<path sketch:type="MSShapeGroup" d="M-49,699v-8h-8v3h-18v-3h-8v3h-18v-3h-8v8h3v18h-3v8h3v18h-3v8h8v-3h18v3h8v-3h18v3h8v-8h-3
			v-18h3v-8h-3v-18H-49L-49,699z M-54,717h-3v8h3v18h-3v3h-18v-3h-8v3h-18v-3h-3v-18h3v-8h-3v-18h3v-3h18v3h8v-3h18v3h3V717L-54,717
			z"/>
	</g>
</g>
</svg>
