<svg version="1.1" id="Layer_1" xmlns="http://www.w3.org/2000/svg" xmlns:xlink="http://www.w3.org/1999/xlink" x="0px" y="0px"
	 viewBox="-123.9 704.1 33.8 33.8" style="enable-background:new -123.9 704.1 33.8 33.8;" xml:space="preserve">
<style type="text/css">
	.st0{display:none;}
	.st1{display:inline;}
</style>
<g class="st0">
	<rect x="-318.3" y="518.3" class="st1" width="473.3" height="236"/>
</g>
<g class="st0">
	<g class="st1">
		<g>
			<path d="M-93.2,734.8h-27.2v-27.2h27.2V734.8z M-119.4,733.8h25.2v-25.2h-25.2V733.8z"/>
		</g>
		<g>
			<rect x="-97.2" y="705" width="6.2" height="6.2"/>
		</g>
		<g>
			<rect x="-123" y="730.8" width="6.2" height="6.2"/>
		</g>
		<g>
			<rect x="-123" y="705" width="6.2" height="6.2"/>
		</g>
		<g>
			<rect x="-97.2" y="730.8" width="6.2" height="6.2"/>
		</g>
	</g>
	<g class="st1">
		<g>
			<path d="M-109.2,724.5l-1,3.7h-3.3l4.4-14.3h4.2l4.4,14.3h-3.5l-1.1-3.7H-109.2z M-105.5,722.1l-0.9-3c-0.3-0.8-0.5-1.9-0.7-2.8
				h0c-0.2,0.8-0.4,1.9-0.7,2.8l-0.8,3C-108.7,722.1-105.5,722.1-105.5,722.1z"/>
		</g>
	</g>
</g>
<g>
	<g>
		<path d="M-96.2,707.6h-21.6V706h-4.2v4.2h1.6v21.6h-1.6v4.2h4.2v-1.2h21.6v1.2h4.2v-4.2h-1.2v-21.6h1.2V706h-4.2V707.6z
			 M-94.2,731.8h-2v2h-21.6v-2h-1.6v-21.6h1.6v-1.6h21.6v1.6h2V731.8z"/>
		<path d="M-109.2,713.9l-4.4,14.3h3.3l1-3.7h4.1l1.1,3.7h3.5l-4.4-14.3L-109.2,713.9L-109.2,713.9z M-108.7,722.1l0.8-3
			c0.2-0.8,0.4-1.9,0.7-2.8h0c0.2,0.8,0.5,1.9,0.7,2.8l0.9,3C-105.5,722.1-108.7,722.1-108.7,722.1z"/>
	</g>
</g>
<g class="st0">
	<g class="st1">
		<path d="M-109.2,724.5l-1,3.7h-3.3l4.4-14.3h4.2l4.4,14.3h-3.5l-1.1-3.7H-109.2z M-105.5,722.1l-0.9-3c-0.3-0.8-0.5-1.9-0.7-2.8h0
			c-0.2,0.8-0.4,1.9-0.7,2.8l-0.8,3C-108.7,722.1-105.5,722.1-105.5,722.1z"/>
	</g>
	<g class="st1">
		<path d="M-92,731.8v4.2h-4.2v-4.2H-92 M-91,730.8h-6.2v6.2h6.2V730.8L-91,730.8z"/>
		<path d="M-117.8,706v4.2h-4.2V706H-117.8 M-116.8,705h-6.2v6.2h6.2V705L-116.8,705z"/>
		<rect x="-117.3" y="708.1" width="20.6" height="1"/>
		<rect x="-94.7" y="710.7" width="1" height="20.6"/>
		<path d="M-92,706v4.2h-4.2V706H-92 M-91,705h-6.2v6.2h6.2V705L-91,705z"/>
		<g>
			<rect x="-119.9" y="710.7" width="1" height="20.6"/>
			<rect x="-117.3" y="733.3" width="20.6" height="1"/>
		</g>
		<path d="M-117.8,731.8v4.2h-4.2v-4.2H-117.8 M-116.8,730.8h-6.2v6.2h6.2V730.8L-116.8,730.8z"/>
	</g>
</g>
<g class="st0">
	<g class="st1">
		<path d="M-109.2,724.5l-1,3.7h-3.3l4.4-14.3h4.2l4.4,14.3h-3.5l-1.1-3.7H-109.2z M-105.5,722.1l-0.9-3c-0.3-0.8-0.5-1.9-0.7-2.8h0
			c-0.2,0.8-0.4,1.9-0.7,2.8l-0.8,3C-108.7,722.1-105.5,722.1-105.5,722.1z"/>
	</g>
	<g class="st1">
		<g>
			<rect x="-122.6" y="705.5" width="5.2" height="5.2"/>
			<path d="M-117.8,706v4.2h-4.2V706H-117.8 M-116.8,705h-6.2v6.2h6.2V705L-116.8,705z"/>
		</g>
		<g>
			<rect x="-96.8" y="705.5" width="5.2" height="5.2"/>
			<path d="M-92,706v4.2h-4.2V706H-92 M-91,705h-6.2v6.2h6.2V705L-91,705z"/>
		</g>
		<g>
			<rect x="-122.6" y="731.3" width="5.2" height="5.2"/>
			<path d="M-117.8,731.8v4.2h-4.2v-4.2H-117.8 M-116.8,730.8h-6.2v6.2h6.2V730.8L-116.8,730.8z"/>
		</g>
		<g>
			<rect x="-96.8" y="731.3" width="5.2" height="5.2"/>
			<path d="M-92,731.8v4.2h-4.2v-4.2H-92 M-91,730.8h-6.2v6.2h6.2V730.8L-91,730.8z"/>
		</g>
		<rect x="-117.3" y="708.1" width="20.6" height="1"/>
		<rect x="-94.7" y="710.7" width="1" height="20.6"/>
		<rect x="-119.9" y="710.7" width="1" height="20.6"/>
		<rect x="-117.3" y="733.3" width="20.6" height="1"/>
	</g>
</g>
</svg>
