<svg xmlns="http://www.w3.org/2000/svg" xmlns:xlink="http://www.w3.org/1999/xlink" version="1.1" x="0px" y="0px" viewBox="0 0 32 32" enable-background="new 0 0 32 32" xml:space="preserve"><g display="none"><rect x="-195.333" y="-186.656" display="inline" fill="#000000" width="473.333" height="236"></rect></g><g display="none"><g display="inline"><g><path fill="#000000" d="M29.812,29.812H2.597V2.596h27.215V29.812z M3.597,28.812h25.215V3.596H3.597V28.812z"></path></g><g><rect x="25.806" fill="#000000" width="6.194" height="6.194"></rect></g><g><rect y="25.806" fill="#000000" width="6.194" height="6.194"></rect></g><g><rect x="0" y="0" transform="matrix(4.493479e-11 -1 1 4.493479e-11 1.019544e-09 6.1935)" width="6.194" height="6.194"></rect></g><g><rect x="25.806" y="25.806" transform="matrix(4.493479e-11 -1 1 4.493479e-11 -2.457455e-09 57.8064)" width="6.194" height="6.194"></rect></g></g><g display="inline"><g><path fill="#000000" d="M13.849,19.476l-1.018,3.667H9.483l4.366-14.285h4.238l4.43,14.285h-3.476l-1.102-3.667H13.849z      M17.473,17.06l-0.891-3.03c-0.254-0.848-0.508-1.908-0.72-2.756H15.82c-0.212,0.848-0.424,1.929-0.657,2.756l-0.848,3.03H17.473     z"></path></g></g></g><g><g><path d="M25.806,2.596H6.194V0H0v6.194h2.597v19.613H0V32h6.194v-2.188h19.613V32H32v-6.194h-2.188V6.194H32V0h-6.194V2.596z     M28.812,25.806h-3.005v3.006H6.194v-3.006H3.597V6.194h2.597V3.596h19.613v2.597h3.005V25.806z"></path><path d="M13.849,8.857L9.483,23.143h3.349l1.018-3.667h4.091l1.102,3.667h3.476l-4.43-14.285H13.849z M14.315,17.06l0.848-3.03    c0.233-0.827,0.445-1.908,0.657-2.756h0.043c0.212,0.848,0.466,1.908,0.72,2.756l0.891,3.03H14.315z"></path></g></g><g display="none"><g display="inline"><path fill="#000000" d="M13.849,19.476l-1.018,3.667H9.483l4.366-14.285h4.238l4.43,14.285h-3.476l-1.102-3.667H13.849z     M17.473,17.06l-0.891-3.03c-0.254-0.848-0.508-1.908-0.72-2.756H15.82c-0.212,0.848-0.424,1.929-0.657,2.756l-0.848,3.03H17.473z    "></path></g><g display="inline"><path fill="#000000" d="M31,26.806V31h-4.194v-4.194H31 M32,25.806h-6.194V32H32V25.806L32,25.806z"></path><path fill="#000000" d="M5.194,1v4.194H1V1H5.194 M6.194,0H0v6.194h6.194V0L6.194,0z"></path><rect x="5.694" y="3.097" fill="#000000" width="20.613" height="1"></rect><rect x="28.312" y="5.694" fill="#000000" width="1" height="20.612"></rect><path fill="#000000" d="M31,1v4.194h-4.194V1H31 M32,0h-6.194v6.194H32V0L32,0z"></path><g><rect x="3.097" y="5.694" fill="#000000" width="1" height="20.612"></rect><rect x="5.694" y="28.312" fill="#000000" width="20.613" height="1"></rect></g><path fill="#000000" d="M5.194,26.806V31H1v-4.194H5.194 M6.194,25.806H0V32h6.194V25.806L6.194,25.806z"></path></g></g><g display="none"><g display="inline"><path fill="#000000" d="M13.849,19.476l-1.018,3.667H9.483l4.366-14.285h4.238l4.43,14.285h-3.476l-1.102-3.667H13.849z     M17.473,17.06l-0.891-3.03c-0.254-0.848-0.508-1.908-0.72-2.756H15.82c-0.212,0.848-0.424,1.929-0.657,2.756l-0.848,3.03H17.473z    "></path></g><g display="inline"><g><rect x="0.381" y="0.541" fill="#000000" width="5.16" height="5.16"></rect><path fill="#000000" d="M5.194,1v4.194H1V1H5.194 M6.194,0H0v6.194h6.194V0L6.194,0z"></path></g><g><rect x="26.188" y="0.541" fill="#000000" width="5.16" height="5.16"></rect><path fill="#000000" d="M31,1v4.194h-4.194V1H31 M32,0h-6.194v6.194H32V0L32,0z"></path></g><g><rect x="0.381" y="26.347" fill="#000000" width="5.16" height="5.16"></rect><path fill="#000000" d="M5.194,26.806V31H1v-4.194H5.194 M6.194,25.806H0V32h6.194V25.806L6.194,25.806z"></path></g><g><rect x="26.188" y="26.347" fill="#000000" width="5.16" height="5.16"></rect><path fill="#000000" d="M31,26.806V31h-4.194v-4.194H31 M32,25.806h-6.194V32H32V25.806L32,25.806z"></path></g><rect x="5.694" y="3.097" fill="#000000" width="20.613" height="1"></rect><rect x="28.312" y="5.694" fill="#000000" width="1" height="20.612"></rect><rect x="3.097" y="5.694" fill="#000000" width="1" height="20.612"></rect><rect x="5.694" y="28.312" fill="#000000" width="20.613" height="1"></rect></g></g></svg>