<svg xmlns="http://www.w3.org/2000/svg" xmlns:xlink="http://www.w3.org/1999/xlink" preserveAspectRatio="xMidYMid" width="100" height="100" viewBox="0 0 100 100">
  <defs>
    <style>

      .cls-3 {
        fill: #bdc7cd;
        fill-opacity: 0.18;
      }

      .cls-4 {
        fill: #bdc7cd;
      }
    </style>
  </defs>
  <g id="usersvg">
    <rect id="rect-1" class="cls-3" width="100" height="100"/>
    <path d="M72.064,69.578 C70.926,68.935 69.901,68.401 68.989,67.977 C68.075,67.553 66.975,67.107 65.689,66.639 C65.479,66.318 64.641,65.565 63.174,64.380 C61.708,63.196 60.645,62.458 59.987,62.166 C59.747,61.581 59.283,61.128 58.595,60.806 C58.595,60.806 58.505,56.596 58.505,56.596 C59.583,55.367 60.196,53.394 60.346,50.675 C60.436,50.675 60.593,50.675 60.817,50.675 C61.042,50.675 61.176,50.675 61.221,50.675 C61.266,50.675 61.363,50.660 61.513,50.631 C61.663,50.602 61.752,50.551 61.783,50.477 C61.812,50.405 61.865,50.309 61.940,50.192 C62.014,50.076 62.067,49.922 62.097,49.732 C62.126,49.542 62.156,49.315 62.187,49.052 C62.306,48.029 62.583,47.115 63.017,46.311 C63.451,45.507 63.668,44.929 63.668,44.578 C63.668,43.438 63.294,42.868 62.546,42.868 C62.636,42.429 62.822,41.852 63.107,41.135 C63.391,40.419 63.623,39.644 63.803,38.811 C63.983,37.977 64.087,36.962 64.117,35.763 C64.207,31.962 62.007,29.301 57.517,27.780 C56.649,26.289 55.549,25.230 54.217,24.600 C52.885,23.972 50.828,23.497 48.044,23.175 C46.936,22.971 46.016,22.949 45.283,23.109 C44.549,23.270 43.981,23.409 43.577,23.526 C43.173,23.643 42.866,23.884 42.657,24.250 C42.447,24.616 42.320,24.893 42.275,25.083 C42.230,25.273 42.192,25.543 42.163,25.894 C42.163,25.894 41.759,26.245 41.759,26.245 C41.489,26.480 41.040,26.852 40.412,27.364 C39.783,27.876 39.110,28.394 38.391,28.921 C37.253,29.769 36.490,30.712 36.102,31.749 C35.712,32.788 35.518,34.155 35.518,35.850 C35.488,36.699 35.592,37.576 35.832,38.482 C36.071,39.388 36.386,40.295 36.775,41.201 C37.164,42.108 37.388,42.663 37.448,42.868 C37.029,42.897 36.745,43.043 36.595,43.306 C36.445,43.569 36.371,43.994 36.371,44.578 C36.371,44.929 36.565,45.514 36.955,46.333 C37.343,47.151 37.598,48.058 37.718,49.052 C37.747,49.315 37.785,49.542 37.830,49.732 C37.875,49.922 37.935,50.076 38.010,50.192 C38.084,50.309 38.144,50.405 38.189,50.477 C38.234,50.551 38.331,50.602 38.481,50.631 C38.631,50.660 38.728,50.675 38.773,50.675 C38.818,50.675 38.953,50.675 39.177,50.675 C39.401,50.675 39.559,50.675 39.648,50.675 C39.798,53.394 40.412,55.367 41.489,56.596 C41.489,56.596 41.399,60.806 41.399,60.806 C40.621,61.186 40.157,61.639 40.008,62.166 C39.319,62.458 38.249,63.189 36.797,64.359 C35.345,65.528 34.515,66.288 34.306,66.639 C33.018,67.107 31.918,67.553 31.006,67.977 C30.092,68.401 29.067,68.935 27.930,69.578 C26.792,70.221 25.984,70.660 25.506,70.894 C24.668,71.332 23.979,71.734 23.441,72.100 C22.902,72.466 22.288,73.080 21.600,73.942 C20.911,74.805 20.372,75.821 19.984,76.990 C19.984,76.990 80.011,76.990 80.011,76.990 C79.591,75.850 79.038,74.848 78.350,73.986 C77.661,73.123 77.040,72.494 76.486,72.100 C75.932,71.705 75.266,71.303 74.488,70.894 C74.009,70.660 73.201,70.221 72.064,69.578 Z" id="path-1" class="cls-4" fill-rule="evenodd"/>
  </g>
</svg>
